<svg xmlns="http://www.w3.org/2000/svg" viewBox="0 0 1025 1025"><defs><style>.cls-1{fill:#fff;stroke:#1d1d1b;stroke-miterlimit:10;}.cls-2{fill:#eaeaea;}.cls-3{fill:#1d1d1b;}</style></defs><g id="Слой_2" data-name="Слой 2"><g id="Слой_2-2" data-name="Слой 2"><rect class="cls-1" x="0.5" y="0.5" width="1024" height="1024"/></g><g id="Слой_1-2" data-name="Слой 1"><path class="cls-2" d="M512.5,919a405.22,405.22,0,1,1,158.22-31.94A404,404,0,0,1,512.5,919Z"/><path class="cls-3" d="M512.5,121a390.12,390.12,0,1,1-152.38,30.75A389.13,389.13,0,0,1,512.5,121m0-30C279.71,91,91,279.71,91,512.5S279.71,934,512.5,934,934,745.29,934,512.5,745.29,91,512.5,91Z"/><path class="cls-3" d="M131.75,670.15,311.36,385.24,431.25,516.92,645.46,206.4,924.53,568,869.38,711.31C846,759.68,798.85,797,755.34,828.5l-71.19,51.58-84.51,26.38a305.32,305.32,0,0,1-194.91.14l-63.05-24.88c-34.95-11.74-58.52-36.35-83.74-62.29-8.57-8.81-46.7-34.46-54.57-43.9Z"/></g></g></svg>